<?xml version="1.0" encoding="UTF-8" standalone="no"?><!DOCTYPE svg PUBLIC "-//W3C//DTD SVG 1.1//EN" "http://www.w3.org/Graphics/SVG/1.1/DTD/svg11.dtd"><svg width="100%" height="100%" viewBox="0 0 16 16" version="1.1" xmlns="http://www.w3.org/2000/svg" xmlns:xlink="http://www.w3.org/1999/xlink" xml:space="preserve" xmlns:serif="http://www.serif.com/" style="fill-rule:evenodd;clip-rule:evenodd;stroke-linejoin:round;stroke-miterlimit:1.41421;"><rect id="Page-5" serif:id="Page 5" x="0" y="0" width="16" height="16" style="fill:none;"/><g id="Layer-1" serif:id="Layer 1"><path d="M11.133,4.317l-2.188,-2.052c-0.145,-0.136 -0.321,-0.217 -0.538,-0.203c-0.198,0.006 -0.386,0.091 -0.522,0.236l-2.052,2.189c-0.283,0.302 -0.268,0.777 0.034,1.06c0.145,0.136 0.329,0.203 0.513,0.203c0.2,0 0.399,-0.079 0.547,-0.237l0.823,-0.878l0,3.865c0,0.414 0.336,0.75 0.75,0.75c0.414,0 0.75,-0.336 0.75,-0.75l0,-3.893l0.858,0.804c0.301,0.283 0.777,0.268 1.059,-0.034c0.283,-0.302 0.269,-0.777 -0.034,-1.06m-0.792,8.183c0,1.017 -0.824,1.841 -1.841,1.841c-1.016,0 -1.841,-0.824 -1.841,-1.841c0,-1.016 0.825,-1.841 1.841,-1.841c1.017,0 1.841,0.825 1.841,1.841" style="fill:#8f9295;fill-rule:nonzero;"/></g></svg>