<?xml version="1.0" encoding="UTF-8" standalone="no"?><!DOCTYPE svg PUBLIC "-//W3C//DTD SVG 1.1//EN" "http://www.w3.org/Graphics/SVG/1.1/DTD/svg11.dtd"><svg width="100%" height="100%" viewBox="0 0 16 16" version="1.1" xmlns="http://www.w3.org/2000/svg" xmlns:xlink="http://www.w3.org/1999/xlink" xml:space="preserve" xmlns:serif="http://www.serif.com/" style="fill-rule:evenodd;clip-rule:evenodd;stroke-linejoin:round;stroke-miterlimit:1.41421;"><rect id="Page-4" serif:id="Page 4" x="0" y="0" width="16" height="16" style="fill:none;"/><g id="Layer-1" serif:id="Layer 1"><path d="M11.633,5.764c-0.303,-0.283 -0.776,-0.267 -1.06,0.034l-0.823,0.878l0,-3.676c0,-0.414 -0.336,-0.75 -0.75,-0.75c-0.414,0 -0.75,0.336 -0.75,0.75l0,3.704l-0.857,-0.803c-0.303,-0.284 -0.777,-0.268 -1.06,0.033c-0.283,0.303 -0.268,0.777 0.034,1.06l2.189,2.053c0.139,0.131 0.322,0.203 0.513,0.203l0.024,0c0.198,-0.007 0.387,-0.092 0.522,-0.237l2.052,-2.188c0.283,-0.303 0.269,-0.777 -0.034,-1.061m-0.792,6.736c0,1.016 -0.824,1.841 -1.841,1.841c-1.016,0 -1.841,-0.825 -1.841,-1.841c0,-1.017 0.825,-1.841 1.841,-1.841c1.017,0 1.841,0.824 1.841,1.841" style="fill:#8f9295;fill-rule:nonzero;"/></g></svg>