<?xml version="1.0" encoding="UTF-8" standalone="no"?><!DOCTYPE svg PUBLIC "-//W3C//DTD SVG 1.1//EN" "http://www.w3.org/Graphics/SVG/1.1/DTD/svg11.dtd"><svg width="100%" height="100%" viewBox="0 0 16 16" version="1.1" xmlns="http://www.w3.org/2000/svg" xmlns:xlink="http://www.w3.org/1999/xlink" xml:space="preserve" xmlns:serif="http://www.serif.com/" style="fill-rule:evenodd;clip-rule:evenodd;stroke-linejoin:round;stroke-miterlimit:1.41421;"><rect id="Page-3" serif:id="Page 3" x="0" y="0" width="16" height="16" style="fill:none;"/><g id="Layer-1" serif:id="Layer 1"><path d="M13.893,5.308c-0.064,-0.409 -0.449,-0.689 -0.857,-0.624c-0.41,0.064 -0.689,0.448 -0.624,0.857l0.169,1.079c-1.171,-0.878 -2.603,-1.37 -4.081,-1.37c-1.902,0 -3.733,0.807 -5.023,2.213c-0.28,0.305 -0.259,0.78 0.046,1.06c0.306,0.279 0.779,0.26 1.059,-0.046c1.007,-1.098 2.435,-1.727 3.918,-1.727c1.205,0 2.368,0.421 3.304,1.165l-1.265,0.199c-0.409,0.065 -0.688,0.448 -0.624,0.858c0.058,0.37 0.377,0.633 0.74,0.633c0.039,0 0.078,-0.003 0.117,-0.009l2.964,-0.467c0.409,-0.065 0.688,-0.448 0.624,-0.858l-0.467,-2.963Zm-3.553,7.192c0,1.016 -0.823,1.841 -1.84,1.841c-1.017,0 -1.84,-0.825 -1.84,-1.841c0,-1.017 0.823,-1.841 1.84,-1.841c1.017,0 1.84,0.824 1.84,1.841" style="fill:#8f9295;fill-rule:nonzero;"/></g></svg>