<svg xmlns="http://www.w3.org/2000/svg" width="47" height="47" viewBox="0 0 47 47"><path d="M41 15.22l-5-2.87v-1.81L33.15 8.9c.88-.45 1.19-.72.42-1.46a3.79 3.79 0 0 0-1-.78l-.11-.11a1.67 1.67 0 0 1-.37-.55 3.68 3.68 0 0 0-.66-1 2.12 2.12 0 0 0-1.07-.69 2.77 2.77 0 0 1-.36-.23v-.21L28.5 3l-1.5.87v1.49l-3.5-2L11 10.54v5.07l2.16 1.24L6 21v5.07l7.21 4.15L11 31.47v5.07l12.5 7.2 15.55-9v-5.03l-7.21-4.15L41 20.29zm-23 5.91l-.46.26-1.54-.88v-6.09l.49-.27L18 15zm1-4.81l4.5 2.59 10.5-6v1.59l-10.5 6-4.5-2.59zM30.69 5.68c.56.63.43.93 1 1.55s.63.17 1.19.8h-.18a.07.07 0 0 0-.06 0h-.09l-.1.08a1.75 1.75 0 0 0-.2.19.57.57 0 0 1-.38.13c-.56 0-.69-.49-1.25-.51a.86.86 0 0 0-.51.18h-.07a.42.42 0 0 1-.16 0 .57.57 0 0 1-.27-.09V4.89a1.68 1.68 0 0 0 .29.27h.2a1.21 1.21 0 0 1 .59.52zM28 4.44l.5-.28v4.58L29 9v2.1l-.5.29-.5-.29zM13 11.7l10.5-6 3.5 2v4l1.5.87 1.5-.87V9.4l4 2.3-1.56.9-8.94 5.16-4.5-2.59v-.72L16.5 13l-.65.35L13 11.71zm0 2.76v-1.59L15 14v1.59zm-5 7.7l7-4.06v3l2.54 1.47 1.46-.86v-1.49l4.5 2.59 12.5-7.2v-.95l3 1.72-16.13 9.29-.37-.2-2.5 1.44v.42l-1.55.89L8 22.17zm15 4.72V33l-1.54.89-.46-.3v-6.1l1.51-.88zm-15-2v-1.55l10.5 6.05 1.5-.89v1.59l-1.55.92zm29.1 8.7l-13.6 7.85-10.5-6V33.8l10.5 6L37.05 32zm0-2.75l-13.6 7.86-10.5-6 2.17-1.25 3.28 1.89 1.55-.95v1.79l1.46.84L24 33.55v-3.48l5.83-3.36zm1.9-11.7l-15 8.64v-1.48l-.1-.05 15.1-8.7zM21.81 31.87l.79-.45v1l-.79.45zm0-1.85l.79-.45v1l-.79.45zm0-1.85l.79-.45v1l-.79.45zM16.4 19l.79.46v1L16.4 20zm.79-1.39v1l-.79-.46v-1zm-.79-2.31l.79.46v1l-.79-.46z" fill="#39a4e6"/></svg>
