<?xml version="1.0" encoding="UTF-8" standalone="no"?><!DOCTYPE svg PUBLIC "-//W3C//DTD SVG 1.1//EN" "http://www.w3.org/Graphics/SVG/1.1/DTD/svg11.dtd"><svg width="100%" height="100%" viewBox="0 0 16 16" version="1.1" xmlns="http://www.w3.org/2000/svg" xmlns:xlink="http://www.w3.org/1999/xlink" xml:space="preserve" xmlns:serif="http://www.serif.com/" style="fill-rule:evenodd;clip-rule:evenodd;stroke-linejoin:round;stroke-miterlimit:1.41421;"><rect id="Page-2" serif:id="Page 2" x="0" y="0" width="16" height="16" style="fill:none;"/><g id="Layer-1" serif:id="Layer 1"><path d="M5.5,3l-2,0c-0.276,0 -0.5,0.224 -0.5,0.5l0,9c0,0.276 0.224,0.5 0.5,0.5l2,0c0.276,0 0.5,-0.224 0.5,-0.5l0,-9c0,-0.276 -0.224,-0.5 -0.5,-0.5m6.5,0.5l0,9c0,0.276 -0.224,0.5 -0.5,0.5l-2,0c-0.276,0 -0.5,-0.224 -0.5,-0.5l0,-9c0,-0.276 0.224,-0.5 0.5,-0.5l2,0c0.276,0 0.5,0.224 0.5,0.5" style="fill:#8f9295;fill-rule:nonzero;"/></g></svg>